<svg xmlns="http://www.w3.org/2000/svg" width="29" height="29" viewBox="0 0 29 29"><g transform="translate(0 -11)"><circle cx="14.5" cy="14.5" r="14.5" transform="translate(0 11)" fill="none"/><g transform="translate(2.902 8.383)"><path d="M9.2,20a7.528,7.528,0,0,1-2.219-.339,6.918,6.918,0,0,1-1.258-.392,8.09,8.09,0,0,1-2.311-1.49,9.764,9.764,0,0,1-1.857-2.309A11.289,11.289,0,0,1,.348,12.487a11.618,11.618,0,0,1-.333-3.4,10.327,10.327,0,0,1,1.766-5.71A7.566,7.566,0,0,1,6.3.236,7.243,7.243,0,0,1,7.93.051a7.614,7.614,0,0,1,2.758.526,10.558,10.558,0,0,1,3.1,3.107,12.853,12.853,0,0,1,1.853,8.863,8.564,8.564,0,0,0,.774-7.994,6.4,6.4,0,0,0-4.164-4A7.423,7.423,0,0,1,15.044,0a7.3,7.3,0,0,1,.884.054A7.81,7.81,0,0,1,21.509,3.69a10.917,10.917,0,0,1,1.6,7.321,11.054,11.054,0,0,1-2.994,6.4,8.079,8.079,0,0,1-5.739,2.551,7.273,7.273,0,0,1-2.541-.459A7.234,7.234,0,0,1,9.2,20Z" transform="translate(0 9.264)" fill="#ffb100"/><path d="M10.209,2.246C5.467,6.641,0,2.035,0,2.035S5.548-2.681,10.209,2.246Z" transform="matrix(0.966, 0.259, -0.259, 0.966, 1.779, 2.617)" fill="#71c400"/></g></g></svg>