<svg xmlns="http://www.w3.org/2000/svg" xmlns:xlink="http://www.w3.org/1999/xlink" width="163" height="50" viewBox="0 0 163 50"><defs><clipPath id="b"><rect width="163" height="50"/></clipPath></defs><g id="a" clip-path="url(#b)"><g transform="translate(-656.899 -360.649)"><path d="M4523.2-2200.385h0a9.416,9.416,0,0,1-3.42-.651,10.575,10.575,0,0,1-3.045-1.838,11.9,11.9,0,0,1-2.416-2.855,13.163,13.163,0,0,1-1.533-3.7,13.489,13.489,0,0,1-.39-4.087,11.633,11.633,0,0,1,.835-3.68,11.884,11.884,0,0,1,4.785-5.575,9.216,9.216,0,0,1,5.23,2.642,12.969,12.969,0,0,1,2.8,4.468,20.8,20.8,0,0,1,1.338,6.076,12.233,12.233,0,0,0,.4-3.521,12.48,12.48,0,0,0-.564-3.468,11.571,11.571,0,0,0-2.021-3.778,8.947,8.947,0,0,0-2.97-2.5,5.82,5.82,0,0,0-2.583-.626c-.132,0-.264,0-.393.015.2-.1.389-.184.573-.264a7.8,7.8,0,0,1,3.124-.659,8.258,8.258,0,0,1,3.287.7,10.4,10.4,0,0,1,2.926,1.932,13.319,13.319,0,0,1,3.792,6.535,13.525,13.525,0,0,1,.322,4.734,12.682,12.682,0,0,1-1.251,4.3,11.054,11.054,0,0,1-2.593,3.4,9.584,9.584,0,0,1-3.7,2.036A9.206,9.206,0,0,1,4523.2-2200.385Z" transform="translate(-3846.95 2602.445)" fill="#ffba00"/><path d="M4522.769-2200.61a8.357,8.357,0,0,1-3.234-.666,10.173,10.173,0,0,1-2.91-1.876,12.317,12.317,0,0,1-2.338-2.906,14.212,14.212,0,0,1-1.519-3.754,14.53,14.53,0,0,1-.391-4.716,12.919,12.919,0,0,1,1.077-4.254,10.352,10.352,0,0,1,2.34-3.333,8.287,8.287,0,0,1,3.395-1.954,7.871,7.871,0,0,1,2.182-.309,8.428,8.428,0,0,1,3.6.829,10.552,10.552,0,0,1,3.16,2.317,14.622,14.622,0,0,1,2.934,5.7,21.433,21.433,0,0,1,.744,4.074,13.636,13.636,0,0,1-.516,3.581,11.8,11.8,0,0,1-1.387,3.108,9.631,9.631,0,0,1-2.15,2.4,8.21,8.21,0,0,1-2.806,1.447A7.872,7.872,0,0,1,4522.769-2200.61Z" transform="translate(-3851.391 2604.02)" fill="#ffd155"/><path d="M6.746,10.784a11.266,11.266,0,0,1-2.905-.373A10.253,10.253,0,0,1,1.728,9.59,7.682,7.682,0,0,1,0,8.4l0,0A14.159,14.159,0,0,1,2.043,6.7,11.265,11.265,0,0,1,4.181,5.53,6.751,6.751,0,0,1,6.692,5c2.353,0,4.256,1.546,5.657,4.6A14.854,14.854,0,0,1,6.746,10.784Zm7.527-1.338h0c-.958-2.731-.869-4.926.265-6.526A6.872,6.872,0,0,1,18.583.434,14.425,14.425,0,0,1,22.041,0c.15,0,.246,0,.28,0h0A8.923,8.923,0,0,1,21.29,3.53a11.163,11.163,0,0,1-2.393,3.1,15.058,15.058,0,0,1-4.623,2.82Z" transform="translate(656.899 367.888)" fill="#00b52a"/></g><path d="M2.549-18.776H5.777l7.307,14.4h.156l7.165-14.4h3.172V0H20.4V-15.392h-.1L12.6,0h-.651L4.163-15.265H3.951V0h-1.4ZM28.9-13.948l2.025-.821h.835V0H28.9Zm-.227-6.1a1.6,1.6,0,0,1,.127-.637,1.657,1.657,0,0,1,.354-.524,1.657,1.657,0,0,1,.524-.354,1.6,1.6,0,0,1,.637-.127,1.6,1.6,0,0,1,.637.127,1.657,1.657,0,0,1,.524.354,1.657,1.657,0,0,1,.354.524,1.6,1.6,0,0,1,.127.637,1.6,1.6,0,0,1-.127.637,1.657,1.657,0,0,1-.354.524,1.657,1.657,0,0,1-.524.354,1.6,1.6,0,0,1-.637.127,1.6,1.6,0,0,1-.637-.127,1.657,1.657,0,0,1-.524-.354,1.657,1.657,0,0,1-.354-.524A1.6,1.6,0,0,1,28.674-20.051ZM39.11-14.769h.439l.382,2.959A5.259,5.259,0,0,1,40.781-13a6.077,6.077,0,0,1,1.126-.935,5.48,5.48,0,0,1,1.3-.616,4.556,4.556,0,0,1,1.395-.219,4.691,4.691,0,0,1,1.253.17,3.84,3.84,0,0,1,1.154.538l-.906,2.421a2.761,2.761,0,0,0-.595-.5,2.989,2.989,0,0,0-.637-.3,2.922,2.922,0,0,0-.666-.135q-.34-.028-.68-.028a3.637,3.637,0,0,0-1.055.156,3.81,3.81,0,0,0-.984.46,3.915,3.915,0,0,0-.864.779,5.057,5.057,0,0,0-.694,1.112V0H37.057V-13.976ZM58.595,0a2.69,2.69,0,0,1-.956-.8,1.913,1.913,0,0,1-.389-1.182q-.51.382-1,.793a7.481,7.481,0,0,1-1.062.743A5.991,5.991,0,0,1,53.915.1a5.6,5.6,0,0,1-1.621.212A4.086,4.086,0,0,1,50.757.035,3.371,3.371,0,0,1,49.6-.722a3.373,3.373,0,0,1-.736-1.147A3.87,3.87,0,0,1,48.6-3.3a3.775,3.775,0,0,1,.368-1.685,4.46,4.46,0,0,1,1.012-1.338A7.514,7.514,0,0,1,51.472-7.37a14.461,14.461,0,0,1,1.813-.821q.963-.361,1.982-.644T57.25-9.36v-.906a8.353,8.353,0,0,0-.142-1.671,2.9,2.9,0,0,0-.439-1.1,1.636,1.636,0,0,0-.758-.595,3.057,3.057,0,0,0-1.1-.177,2.586,2.586,0,0,0-1.119.241,3.047,3.047,0,0,0-.9.644,3.347,3.347,0,0,0-.637.949,4.164,4.164,0,0,0-.333,1.154H49.192a3.535,3.535,0,0,1,.644-1.671,4.676,4.676,0,0,1,1.338-1.239,6.619,6.619,0,0,1,1.834-.772,8.372,8.372,0,0,1,2.131-.269,8.757,8.757,0,0,1,2.379.276,4.08,4.08,0,0,1,1.543.772,2.749,2.749,0,0,1,.828,1.211,4.8,4.8,0,0,1,.248,1.579v8.949A1.913,1.913,0,0,0,60.528-.8a2.69,2.69,0,0,0,.956.8ZM57.25-8.439q-.623.2-1.289.453t-1.3.573a13.774,13.774,0,0,0-1.218.687,6.347,6.347,0,0,0-1.02.793,3.743,3.743,0,0,0-.694.892,2.013,2.013,0,0,0-.255.977,2.6,2.6,0,0,0,.2,1.012,2.912,2.912,0,0,0,.524.835,2.425,2.425,0,0,0,.75.566,2,2,0,0,0,.878.205,3.285,3.285,0,0,0,.92-.127,4.4,4.4,0,0,0,.85-.347,8.534,8.534,0,0,0,.821-.5q.411-.283.835-.609Zm7.562-12.645,2.039-.807h.85v10.125a5.359,5.359,0,0,1,.927-1.161,6.938,6.938,0,0,1,1.246-.956,6.956,6.956,0,0,1,1.4-.644,4.447,4.447,0,0,1,1.395-.241,5.3,5.3,0,0,1,2.322.51,5.621,5.621,0,0,1,1.827,1.388,6.528,6.528,0,0,1,1.2,2.046,7.15,7.15,0,0,1,.432,2.5,8.972,8.972,0,0,1-.63,3.37,8.667,8.667,0,0,1-1.728,2.74A8.214,8.214,0,0,1,73.52-.368a7.411,7.411,0,0,1-3.144.68,10.568,10.568,0,0,1-3.037-.425A7.577,7.577,0,0,1,64.811-1.4ZM67.7-2.365q.269.255.588.524A4.428,4.428,0,0,0,69-1.352,4.029,4.029,0,0,0,69.887-1a4.135,4.135,0,0,0,1.1.135,3.505,3.505,0,0,0,1.827-.489A4.434,4.434,0,0,0,74.22-2.712a6.79,6.79,0,0,0,.906-2.067,10.134,10.134,0,0,0,.319-2.613,6.013,6.013,0,0,0-.333-2.018,5.418,5.418,0,0,0-.906-1.643,4.3,4.3,0,0,0-1.345-1.1,3.508,3.508,0,0,0-1.65-.4,3.822,3.822,0,0,0-1.012.142,5.065,5.065,0,0,0-.984.382,5.111,5.111,0,0,0-.864.559,3.287,3.287,0,0,0-.651.687ZM88.671.312A6.986,6.986,0,0,1,85.9-.241a7.212,7.212,0,0,1-2.259-1.5,7.063,7.063,0,0,1-1.522-2.23A6.74,6.74,0,0,1,81.563-6.7a9.83,9.83,0,0,1,.51-3.221,7.649,7.649,0,0,1,1.444-2.556,6.65,6.65,0,0,1,2.244-1.685,6.854,6.854,0,0,1,2.924-.609,6.625,6.625,0,0,1,2.605.5,6.479,6.479,0,0,1,2.046,1.345,6.059,6.059,0,0,1,1.331,1.947,5.789,5.789,0,0,1,.474,2.308h-10.8a9.342,9.342,0,0,0,.375,2.7,6.837,6.837,0,0,0,1.055,2.152,5,5,0,0,0,1.614,1.416,4.218,4.218,0,0,0,2.053.51,5.37,5.37,0,0,0,1.8-.3,6.349,6.349,0,0,0,1.565-.8A5.593,5.593,0,0,0,94-4.121a3.947,3.947,0,0,0,.694-1.317l.835.368a6.7,6.7,0,0,1-1.005,2.1A8.188,8.188,0,0,1,92.9-1.267,7.871,7.871,0,0,1,90.88-.113,6.04,6.04,0,0,1,88.671.312Zm2.86-10.139a3.992,3.992,0,0,0-.29-1.529,3.747,3.747,0,0,0-.8-1.225,3.784,3.784,0,0,0-1.189-.814,3.6,3.6,0,0,0-1.458-.3,2.806,2.806,0,0,0-1.246.29,3.487,3.487,0,0,0-1.062.807,4.4,4.4,0,0,0-.772,1.225,4.652,4.652,0,0,0-.361,1.529ZM102.52,0H99.631V-21.07l2.053-.821h.835Zm7.986,0h-2.889V-21.07l2.053-.821h.835Zm11.215.312a6.986,6.986,0,0,1-2.768-.552,7.212,7.212,0,0,1-2.259-1.5,7.063,7.063,0,0,1-1.522-2.23,6.74,6.74,0,0,1-.559-2.726,9.83,9.83,0,0,1,.51-3.221,7.649,7.649,0,0,1,1.444-2.556,6.65,6.65,0,0,1,2.244-1.685,6.854,6.854,0,0,1,2.924-.609,6.625,6.625,0,0,1,2.605.5,6.479,6.479,0,0,1,2.046,1.345,6.059,6.059,0,0,1,1.331,1.947,5.789,5.789,0,0,1,.474,2.308h-10.8a9.342,9.342,0,0,0,.375,2.7,6.837,6.837,0,0,0,1.055,2.152,5,5,0,0,0,1.614,1.416,4.218,4.218,0,0,0,2.053.51,5.37,5.37,0,0,0,1.8-.3,6.349,6.349,0,0,0,1.565-.8,5.593,5.593,0,0,0,1.2-1.133,3.947,3.947,0,0,0,.694-1.317l.835.368a6.7,6.7,0,0,1-1.005,2.1,8.188,8.188,0,0,1-1.621,1.706A7.871,7.871,0,0,1,123.93-.113,6.04,6.04,0,0,1,121.721.312Zm2.86-10.139a3.992,3.992,0,0,0-.29-1.529,3.747,3.747,0,0,0-.8-1.225A3.784,3.784,0,0,0,122.3-13.4a3.6,3.6,0,0,0-1.458-.3,2.806,2.806,0,0,0-1.246.29,3.487,3.487,0,0,0-1.062.807,4.4,4.4,0,0,0-.772,1.225,4.652,4.652,0,0,0-.361,1.529Z" transform="translate(34.426 35.892)" fill="#fff"/></g></svg>